#N canvas 1187 601 1600 640 12;
#X obj 108 259 pack f f f;
#X obj 367 487 unpack f f f;
#X obj 367 588 noteout, f 12;
#X msg 367 462 \$2 \$3 \$1;
#X obj 877 21 loadbang;
#X obj 108 207 notein, f 11;
#X floatatom 146 55 5 0 16 0 Midi\ Channel set_midichannel midichannel
0;
#X floatatom 723 25 5 1 16 0 Outgoing\ Channel\ Start set_channelstart
channelstart 0;
#X msg 876 58 \; set_midichannel 0 \; set_voices 4 \; set_channelstart
1 \;;
#X obj 108 233 poly 1 1;
#X floatatom 1361 103 5 0 0 0 - - - 0;
#X obj 1361 45 r voices;
#N canvas 846 871 450 278 (subpatch) 0;
#X array voicearray 9 float 2;
#X coords 0 1 9 -1 200 140 1;
#X restore 858 475 graph;
#X msg 1413 87 \; voicearray const 0;
#X obj 1361 74 t f b;
#X obj 1360 141 tabwrite voicearray;
#X obj 140 335 tabread voicearray;
#X obj 108 362 spigot, f 15;
#X msg 140 310 1;
#X obj 108 284 t l b;
#X obj 275 260 pack f f f;
#X obj 275 208 notein, f 11;
#X obj 307 336 tabread voicearray;
#X obj 275 363 spigot, f 15;
#X obj 275 285 t l b;
#X obj 441 262 pack f f f;
#X obj 441 210 notein, f 11;
#X obj 473 338 tabread voicearray;
#X obj 441 365 spigot, f 15;
#X obj 441 287 t l b;
#X obj 611 264 pack f f f;
#X obj 611 212 notein, f 11;
#X obj 643 340 tabread voicearray;
#X obj 611 367 spigot, f 15;
#X obj 611 289 t l b;
#X obj 780 264 pack f f f;
#X obj 780 212 notein, f 11;
#X obj 812 340 tabread voicearray;
#X obj 780 367 spigot, f 15;
#X obj 780 289 t l b;
#X obj 949 266 pack f f f;
#X obj 949 214 notein, f 11;
#X obj 981 342 tabread voicearray;
#X obj 949 369 spigot, f 15;
#X obj 949 291 t l b;
#X obj 1121 267 pack f f f;
#X obj 1121 215 notein, f 11;
#X obj 1153 343 tabread voicearray;
#X obj 1121 370 spigot, f 15;
#X obj 1121 292 t l b;
#X obj 1298 269 pack f f f;
#X obj 1298 217 notein, f 11;
#X obj 1330 345 tabread voicearray;
#X obj 1298 372 spigot, f 15;
#X obj 1298 294 t l b;
#X obj 275 234 poly 2 1;
#X obj 441 236 poly 3 1;
#X obj 611 238 poly 4 1;
#X obj 780 238 poly 5 1;
#X obj 949 240 poly 6 1;
#X obj 1121 241 poly 7 1;
#X obj 1298 243 poly 8 1;
#X msg 1330 320 8;
#X msg 1153 318 7;
#X msg 981 317 6;
#X msg 812 315 5;
#X msg 643 315 4;
#X msg 473 313 3;
#X msg 307 311 2;
#X obj 466 534 - 1;
#X obj 465 507 r channelstart;
#X obj 448 561 +;
#X floatatom 725 54 5 1 16 0 Voices set_voices voices 0;
#X connect 0 0 19 0;
#X connect 1 0 2 0;
#X connect 1 1 2 1;
#X connect 1 2 71 0;
#X connect 3 0 1 0;
#X connect 4 0 8 0;
#X connect 5 0 9 0;
#X connect 5 1 9 1;
#X connect 9 0 0 0;
#X connect 9 1 0 1;
#X connect 9 2 0 2;
#X connect 10 0 15 1;
#X connect 10 0 15 0;
#X connect 11 0 14 0;
#X connect 14 0 10 0;
#X connect 14 1 13 0;
#X connect 16 0 17 1;
#X connect 17 0 3 0;
#X connect 18 0 16 0;
#X connect 19 0 17 0;
#X connect 19 1 18 0;
#X connect 20 0 24 0;
#X connect 21 0 55 0;
#X connect 21 1 55 1;
#X connect 22 0 23 1;
#X connect 23 0 3 0;
#X connect 24 0 23 0;
#X connect 24 1 68 0;
#X connect 25 0 29 0;
#X connect 26 0 56 0;
#X connect 26 1 56 1;
#X connect 27 0 28 1;
#X connect 28 0 3 0;
#X connect 29 0 28 0;
#X connect 29 1 67 0;
#X connect 30 0 34 0;
#X connect 31 0 57 0;
#X connect 31 1 57 1;
#X connect 32 0 33 1;
#X connect 33 0 3 0;
#X connect 34 0 33 0;
#X connect 34 1 66 0;
#X connect 35 0 39 0;
#X connect 36 0 58 0;
#X connect 36 1 58 1;
#X connect 37 0 38 1;
#X connect 38 0 3 0;
#X connect 39 0 38 0;
#X connect 39 1 65 0;
#X connect 40 0 44 0;
#X connect 41 0 59 0;
#X connect 41 1 59 1;
#X connect 42 0 43 1;
#X connect 43 0 3 0;
#X connect 44 0 43 0;
#X connect 44 1 64 0;
#X connect 45 0 49 0;
#X connect 46 0 60 0;
#X connect 46 1 60 1;
#X connect 47 0 48 1;
#X connect 48 0 3 0;
#X connect 49 0 48 0;
#X connect 49 1 63 0;
#X connect 50 0 54 0;
#X connect 51 0 61 0;
#X connect 51 1 61 1;
#X connect 52 0 53 1;
#X connect 53 0 3 0;
#X connect 54 0 53 0;
#X connect 54 1 62 0;
#X connect 55 0 20 0;
#X connect 55 1 20 1;
#X connect 55 2 20 2;
#X connect 56 0 25 0;
#X connect 56 1 25 1;
#X connect 56 2 25 2;
#X connect 57 0 30 0;
#X connect 57 1 30 1;
#X connect 57 2 30 2;
#X connect 58 0 35 0;
#X connect 58 1 35 1;
#X connect 58 2 35 2;
#X connect 59 0 40 0;
#X connect 59 1 40 1;
#X connect 59 2 40 2;
#X connect 60 0 45 0;
#X connect 60 1 45 1;
#X connect 60 2 45 2;
#X connect 61 0 50 0;
#X connect 61 1 50 1;
#X connect 61 2 50 2;
#X connect 62 0 52 0;
#X connect 63 0 47 0;
#X connect 64 0 42 0;
#X connect 65 0 37 0;
#X connect 66 0 32 0;
#X connect 67 0 27 0;
#X connect 68 0 22 0;
#X connect 69 0 71 1;
#X connect 70 0 69 0;
#X connect 71 0 2 2;
