#N canvas 1803 234 1914 1346 12;
#X obj 367 487 unpack f f f;
#X obj 367 588 noteout, f 12;
#X msg 367 462 \$2 \$3 \$1;
#X obj 877 21 loadbang;
#X floatatom 146 55 5 0 16 0 Midi\ Channel set_midichannel midichannel
0;
#X floatatom 724 26 5 1 16 0 Outgoing\ Channel\ Start set_channelstart
channelstart 0;
#X msg 876 58 \; set_midichannel 0 \; set_voices 4 \; set_channelstart
1 \;;
#X floatatom 1361 103 5 0 0 0 - - - 0;
#X obj 1361 20 r voices;
#N canvas 846 871 450 278 (subpatch) 0;
#X array voicearray 9 float 2;
#X coords 0 1 9 -1 200 140 1;
#X restore 858 475 graph;
#X msg 1413 87 \; voicearray const 0;
#X obj 1361 74 t f b;
#X obj 1360 141 tabwrite voicearray;
#X obj 275 260 pack f f f;
#X obj 275 208 notein, f 11;
#X obj 307 336 tabread voicearray;
#X obj 275 363 spigot, f 15;
#X obj 275 285 t l b;
#X obj 441 262 pack f f f;
#X obj 441 210 notein, f 11;
#X obj 473 338 tabread voicearray;
#X obj 441 365 spigot, f 15;
#X obj 441 287 t l b;
#X obj 611 264 pack f f f;
#X obj 611 212 notein, f 11;
#X obj 643 340 tabread voicearray;
#X obj 611 367 spigot, f 15;
#X obj 611 289 t l b;
#X obj 780 264 pack f f f;
#X obj 780 212 notein, f 11;
#X obj 812 340 tabread voicearray;
#X obj 780 367 spigot, f 15;
#X obj 780 289 t l b;
#X obj 949 266 pack f f f;
#X obj 949 214 notein, f 11;
#X obj 981 342 tabread voicearray;
#X obj 949 369 spigot, f 15;
#X obj 949 291 t l b;
#X obj 1121 267 pack f f f;
#X obj 1121 215 notein, f 11;
#X obj 1153 343 tabread voicearray;
#X obj 1121 370 spigot, f 15;
#X obj 1121 292 t l b;
#X obj 1298 269 pack f f f;
#X obj 1298 217 notein, f 11;
#X obj 1330 345 tabread voicearray;
#X obj 1298 372 spigot, f 15;
#X obj 1298 294 t l b;
#X obj 275 234 poly 2 1;
#X obj 441 236 poly 3 1;
#X obj 611 238 poly 4 1;
#X obj 780 238 poly 5 1;
#X obj 949 240 poly 6 1;
#X obj 1121 241 poly 7 1;
#X obj 1298 243 poly 8 1;
#X msg 1330 320 8;
#X msg 1153 318 7;
#X msg 981 317 6;
#X msg 812 315 5;
#X msg 643 315 4;
#X msg 473 313 3;
#X msg 307 311 2;
#X obj 466 534 - 1;
#X obj 465 507 r channelstart;
#X obj 448 561 +;
#X floatatom 724 56 5 2 16 0 Voices set_voices voices 0;
#X obj 1231 21 r voices;
#X obj 1231 47 value numvoices;
#X obj 1059 22 r channelstart;
#X obj 1060 51 value startingchannel;
#X obj 98 1021 ctlin, f 6;
#X obj 99 1166 ctlout, f 20;
#X obj 100 1134 unpack i i i;
#X obj 101 1104 pack i i i;
#X obj 175 1075 expr startingchannel + 1;
#X obj 120 1051 t l b;
#X obj 100 773 ctlin, f 6;
#X obj 101 918 ctlout, f 20;
#X obj 102 886 unpack i i i;
#X obj 103 856 pack i i i;
#X obj 122 803 t l b;
#X obj 177 827 expr startingchannel;
#X obj 364 767 ctlin, f 10;
#X obj 363 983 ctlout, f 20;
#X obj 364 951 unpack i i i;
#X obj 364 856 pack i i i;
#X obj 397 795 t l b, f 8;
#X obj 431 824 expr startingchannel + 2;
#X msg 454 857 3;
#X obj 364 920 spigot;
#X obj 495 856 expr numvoices;
#X obj 471 887 <=;
#X obj 626 767 ctlin, f 10;
#X obj 625 983 ctlout, f 20;
#X obj 626 951 unpack i i i;
#X obj 626 856 pack i i i;
#X obj 659 795 t l b, f 8;
#X obj 626 920 spigot;
#X obj 757 856 expr numvoices;
#X obj 733 887 <=;
#X obj 887 767 ctlin, f 10;
#X obj 886 983 ctlout, f 20;
#X obj 887 951 unpack i i i;
#X obj 887 856 pack i i i;
#X obj 920 795 t l b, f 8;
#X obj 887 920 spigot;
#X obj 1018 856 expr numvoices;
#X obj 994 887 <=;
#X obj 626 1043 ctlin, f 10;
#X obj 625 1259 ctlout, f 20;
#X obj 626 1227 unpack i i i;
#X obj 626 1132 pack i i i;
#X obj 659 1071 t l b, f 8;
#X obj 626 1196 spigot;
#X obj 757 1132 expr numvoices;
#X obj 733 1163 <=;
#X obj 365 1039 ctlin, f 10;
#X obj 364 1255 ctlout, f 20;
#X obj 365 1223 unpack i i i;
#X obj 365 1128 pack i i i;
#X obj 398 1067 t l b, f 8;
#X obj 365 1192 spigot;
#X obj 496 1128 expr numvoices;
#X obj 472 1159 <=;
#X obj 693 824 expr startingchannel + 3;
#X obj 954 824 expr startingchannel + 4;
#X msg 716 857 4;
#X msg 977 857 5;
#X msg 455 1129 6;
#X msg 716 1133 7;
#X obj 432 1096 expr startingchannel + 5;
#X obj 693 1100 expr startingchannel + 6;
#X obj 886 1037 ctlin, f 10;
#X obj 885 1253 ctlout, f 20;
#X obj 886 1221 unpack i i i;
#X obj 886 1126 pack i i i;
#X obj 919 1065 t l b, f 8;
#X obj 886 1190 spigot;
#X obj 1017 1126 expr numvoices;
#X obj 993 1157 <=;
#X obj 953 1094 expr startingchannel + 7;
#X msg 976 1127 8;
#X connect 0 0 1 0;
#X connect 0 1 1 1;
#X connect 0 2 64 0;
#X connect 2 0 0 0;
#X connect 3 0 6 0;
#X connect 7 0 12 1;
#X connect 7 0 12 0;
#X connect 8 0 11 0;
#X connect 11 0 7 0;
#X connect 11 1 10 0;
#X connect 13 0 17 0;
#X connect 14 0 48 0;
#X connect 14 1 48 1;
#X connect 15 0 16 1;
#X connect 16 0 2 0;
#X connect 17 0 16 0;
#X connect 17 1 61 0;
#X connect 18 0 22 0;
#X connect 19 0 49 0;
#X connect 19 1 49 1;
#X connect 20 0 21 1;
#X connect 21 0 2 0;
#X connect 22 0 21 0;
#X connect 22 1 60 0;
#X connect 23 0 27 0;
#X connect 24 0 50 0;
#X connect 24 1 50 1;
#X connect 25 0 26 1;
#X connect 26 0 2 0;
#X connect 27 0 26 0;
#X connect 27 1 59 0;
#X connect 28 0 32 0;
#X connect 29 0 51 0;
#X connect 29 1 51 1;
#X connect 30 0 31 1;
#X connect 31 0 2 0;
#X connect 32 0 31 0;
#X connect 32 1 58 0;
#X connect 33 0 37 0;
#X connect 34 0 52 0;
#X connect 34 1 52 1;
#X connect 35 0 36 1;
#X connect 36 0 2 0;
#X connect 37 0 36 0;
#X connect 37 1 57 0;
#X connect 38 0 42 0;
#X connect 39 0 53 0;
#X connect 39 1 53 1;
#X connect 40 0 41 1;
#X connect 41 0 2 0;
#X connect 42 0 41 0;
#X connect 42 1 56 0;
#X connect 43 0 47 0;
#X connect 44 0 54 0;
#X connect 44 1 54 1;
#X connect 45 0 46 1;
#X connect 46 0 2 0;
#X connect 47 0 46 0;
#X connect 47 1 55 0;
#X connect 48 0 13 0;
#X connect 48 1 13 1;
#X connect 48 2 13 2;
#X connect 49 0 18 0;
#X connect 49 1 18 1;
#X connect 49 2 18 2;
#X connect 50 0 23 0;
#X connect 50 1 23 1;
#X connect 50 2 23 2;
#X connect 51 0 28 0;
#X connect 51 1 28 1;
#X connect 51 2 28 2;
#X connect 52 0 33 0;
#X connect 52 1 33 1;
#X connect 52 2 33 2;
#X connect 53 0 38 0;
#X connect 53 1 38 1;
#X connect 53 2 38 2;
#X connect 54 0 43 0;
#X connect 54 1 43 1;
#X connect 54 2 43 2;
#X connect 55 0 45 0;
#X connect 56 0 40 0;
#X connect 57 0 35 0;
#X connect 58 0 30 0;
#X connect 59 0 25 0;
#X connect 60 0 20 0;
#X connect 61 0 15 0;
#X connect 62 0 64 1;
#X connect 63 0 62 0;
#X connect 64 0 1 2;
#X connect 66 0 67 0;
#X connect 68 0 69 0;
#X connect 70 0 73 0;
#X connect 70 1 75 0;
#X connect 72 0 71 0;
#X connect 72 1 71 1;
#X connect 72 2 71 2;
#X connect 73 0 72 0;
#X connect 74 0 73 2;
#X connect 75 0 73 1;
#X connect 75 1 74 0;
#X connect 76 0 79 0;
#X connect 76 1 80 0;
#X connect 78 0 77 0;
#X connect 78 1 77 1;
#X connect 78 2 77 2;
#X connect 79 0 78 0;
#X connect 80 0 79 1;
#X connect 80 1 81 0;
#X connect 81 0 79 2;
#X connect 82 0 85 0;
#X connect 82 1 86 0;
#X connect 84 0 83 0;
#X connect 84 1 83 1;
#X connect 84 2 83 2;
#X connect 85 0 89 0;
#X connect 86 0 85 1;
#X connect 86 1 87 0;
#X connect 86 1 88 0;
#X connect 86 1 90 0;
#X connect 87 0 85 2;
#X connect 88 0 91 0;
#X connect 89 0 84 0;
#X connect 90 0 91 1;
#X connect 91 0 89 1;
#X connect 92 0 95 0;
#X connect 92 1 96 0;
#X connect 94 0 93 0;
#X connect 94 1 93 1;
#X connect 94 2 93 2;
#X connect 95 0 97 0;
#X connect 96 0 95 1;
#X connect 96 1 126 0;
#X connect 96 1 98 0;
#X connect 96 1 124 0;
#X connect 97 0 94 0;
#X connect 98 0 99 1;
#X connect 99 0 97 1;
#X connect 100 0 103 0;
#X connect 100 1 104 0;
#X connect 102 0 101 0;
#X connect 102 1 101 1;
#X connect 102 2 101 2;
#X connect 103 0 105 0;
#X connect 104 0 103 1;
#X connect 104 1 127 0;
#X connect 104 1 106 0;
#X connect 104 1 125 0;
#X connect 105 0 102 0;
#X connect 106 0 107 1;
#X connect 107 0 105 1;
#X connect 108 0 111 0;
#X connect 108 1 112 0;
#X connect 110 0 109 0;
#X connect 110 1 109 1;
#X connect 110 2 109 2;
#X connect 111 0 113 0;
#X connect 112 0 111 1;
#X connect 112 1 129 0;
#X connect 112 1 114 0;
#X connect 112 1 131 0;
#X connect 113 0 110 0;
#X connect 114 0 115 1;
#X connect 115 0 113 1;
#X connect 116 0 119 0;
#X connect 116 1 120 0;
#X connect 118 0 117 0;
#X connect 118 1 117 1;
#X connect 118 2 117 2;
#X connect 119 0 121 0;
#X connect 120 0 119 1;
#X connect 120 1 128 0;
#X connect 120 1 122 0;
#X connect 120 1 130 0;
#X connect 121 0 118 0;
#X connect 122 0 123 1;
#X connect 123 0 121 1;
#X connect 124 0 95 2;
#X connect 125 0 103 2;
#X connect 126 0 99 0;
#X connect 127 0 107 0;
#X connect 128 0 123 0;
#X connect 129 0 115 0;
#X connect 130 0 119 2;
#X connect 131 0 111 2;
#X connect 132 0 135 0;
#X connect 132 1 136 0;
#X connect 134 0 133 0;
#X connect 134 1 133 1;
#X connect 134 2 133 2;
#X connect 135 0 137 0;
#X connect 136 0 135 1;
#X connect 136 1 141 0;
#X connect 136 1 138 0;
#X connect 136 1 140 0;
#X connect 137 0 134 0;
#X connect 138 0 139 1;
#X connect 139 0 137 1;
#X connect 140 0 135 2;
#X connect 141 0 139 0;
